<mxfile host="app.diagrams.net" modified="2020-11-10T09:50:59.217Z" agent="5.0 (Macintosh; Intel Mac OS X 10_15_5) AppleWebKit/537.36 (KHTML, like Gecko) Chrome/86.0.4240.111 Safari/537.36" etag="MtrxNcjmGkY1vyShTjNH" version="13.8.9-1" type="github">
  <diagram id="RUwQlIevcfKSAQEqy2_A" name="Page-1">
    <mxGraphModel dx="1298" dy="635" grid="1" gridSize="10" guides="1" tooltips="1" connect="1" arrows="1" fold="1" page="1" pageScale="1" pageWidth="827" pageHeight="1169" math="0" shadow="0">
      <root>
        <mxCell id="0" />
        <mxCell id="1" parent="0" />
        <mxCell id="EVpmH3NZ51M5gN4jmlzW-64" style="edgeStyle=orthogonalEdgeStyle;rounded=0;orthogonalLoop=1;jettySize=auto;html=1;entryX=1;entryY=0.5;entryDx=0;entryDy=0;" edge="1" parent="1" source="EVpmH3NZ51M5gN4jmlzW-7" target="EVpmH3NZ51M5gN4jmlzW-57">
          <mxGeometry relative="1" as="geometry" />
        </mxCell>
        <mxCell id="EVpmH3NZ51M5gN4jmlzW-7" value="" style="strokeWidth=2;html=1;shape=mxgraph.flowchart.annotation_2;align=left;labelPosition=right;pointerEvents=1;" vertex="1" parent="1">
          <mxGeometry x="480" y="130" width="165" height="400" as="geometry" />
        </mxCell>
        <mxCell id="EVpmH3NZ51M5gN4jmlzW-8" value="pull" style="text;html=1;align=center;verticalAlign=middle;resizable=0;points=[];autosize=1;" vertex="1" parent="1">
          <mxGeometry x="465" y="300" width="30" height="20" as="geometry" />
        </mxCell>
        <mxCell id="EVpmH3NZ51M5gN4jmlzW-9" value="" style="rounded=0;whiteSpace=wrap;html=1;" vertex="1" parent="1">
          <mxGeometry x="645" y="40" width="120" height="70" as="geometry" />
        </mxCell>
        <mxCell id="EVpmH3NZ51M5gN4jmlzW-13" value="Eks(K8s)" style="rounded=0;whiteSpace=wrap;html=1;" vertex="1" parent="1">
          <mxGeometry x="645" y="110" width="120" height="60" as="geometry" />
        </mxCell>
        <mxCell id="EVpmH3NZ51M5gN4jmlzW-14" value="Aws" style="rounded=0;whiteSpace=wrap;html=1;" vertex="1" parent="1">
          <mxGeometry x="645" y="170" width="120" height="60" as="geometry" />
        </mxCell>
        <mxCell id="EVpmH3NZ51M5gN4jmlzW-15" value="" style="rounded=0;whiteSpace=wrap;html=1;" vertex="1" parent="1">
          <mxGeometry x="645" y="270" width="120" height="70" as="geometry" />
        </mxCell>
        <mxCell id="EVpmH3NZ51M5gN4jmlzW-19" value="Eks(K8s)" style="rounded=0;whiteSpace=wrap;html=1;" vertex="1" parent="1">
          <mxGeometry x="645" y="340" width="120" height="60" as="geometry" />
        </mxCell>
        <mxCell id="EVpmH3NZ51M5gN4jmlzW-20" value="Aws" style="rounded=0;whiteSpace=wrap;html=1;" vertex="1" parent="1">
          <mxGeometry x="645" y="400" width="120" height="60" as="geometry" />
        </mxCell>
        <mxCell id="EVpmH3NZ51M5gN4jmlzW-21" value="" style="rounded=0;whiteSpace=wrap;html=1;" vertex="1" parent="1">
          <mxGeometry x="645" y="480" width="120" height="70" as="geometry" />
        </mxCell>
        <mxCell id="EVpmH3NZ51M5gN4jmlzW-25" value="Eks(K8s)" style="rounded=0;whiteSpace=wrap;html=1;" vertex="1" parent="1">
          <mxGeometry x="645" y="550" width="120" height="60" as="geometry" />
        </mxCell>
        <mxCell id="EVpmH3NZ51M5gN4jmlzW-26" value="Aws" style="rounded=0;whiteSpace=wrap;html=1;" vertex="1" parent="1">
          <mxGeometry x="645" y="610" width="120" height="60" as="geometry" />
        </mxCell>
        <mxCell id="EVpmH3NZ51M5gN4jmlzW-27" value="官网" style="whiteSpace=wrap;html=1;" vertex="1" parent="1">
          <mxGeometry x="650" y="50" width="50" height="50" as="geometry" />
        </mxCell>
        <mxCell id="EVpmH3NZ51M5gN4jmlzW-28" value="其他App" style="whiteSpace=wrap;html=1;" vertex="1" parent="1">
          <mxGeometry x="710" y="50" width="50" height="50" as="geometry" />
        </mxCell>
        <mxCell id="EVpmH3NZ51M5gN4jmlzW-29" value="官网" style="whiteSpace=wrap;html=1;" vertex="1" parent="1">
          <mxGeometry x="650" y="280" width="50" height="50" as="geometry" />
        </mxCell>
        <mxCell id="EVpmH3NZ51M5gN4jmlzW-30" value="其他App" style="whiteSpace=wrap;html=1;" vertex="1" parent="1">
          <mxGeometry x="710" y="280" width="50" height="50" as="geometry" />
        </mxCell>
        <mxCell id="EVpmH3NZ51M5gN4jmlzW-31" value="官网" style="whiteSpace=wrap;html=1;" vertex="1" parent="1">
          <mxGeometry x="650" y="490" width="50" height="50" as="geometry" />
        </mxCell>
        <mxCell id="EVpmH3NZ51M5gN4jmlzW-32" value="其他App" style="whiteSpace=wrap;html=1;" vertex="1" parent="1">
          <mxGeometry x="710" y="490" width="50" height="50" as="geometry" />
        </mxCell>
        <mxCell id="EVpmH3NZ51M5gN4jmlzW-36" style="edgeStyle=orthogonalEdgeStyle;rounded=0;orthogonalLoop=1;jettySize=auto;html=1;entryX=0.5;entryY=1;entryDx=0;entryDy=0;" edge="1" parent="1" source="EVpmH3NZ51M5gN4jmlzW-33" target="EVpmH3NZ51M5gN4jmlzW-34">
          <mxGeometry relative="1" as="geometry" />
        </mxCell>
        <mxCell id="EVpmH3NZ51M5gN4jmlzW-33" value="" style="shape=mxgraph.bpmn.user_task;html=1;outlineConnect=0;" vertex="1" parent="1">
          <mxGeometry x="70" y="320" width="50" height="50" as="geometry" />
        </mxCell>
        <mxCell id="EVpmH3NZ51M5gN4jmlzW-54" style="edgeStyle=orthogonalEdgeStyle;rounded=0;orthogonalLoop=1;jettySize=auto;html=1;entryX=0.5;entryY=0;entryDx=0;entryDy=0;" edge="1" parent="1" source="EVpmH3NZ51M5gN4jmlzW-34" target="EVpmH3NZ51M5gN4jmlzW-44">
          <mxGeometry relative="1" as="geometry" />
        </mxCell>
        <mxCell id="EVpmH3NZ51M5gN4jmlzW-34" value="代码仓库" style="rounded=0;whiteSpace=wrap;html=1;" vertex="1" parent="1">
          <mxGeometry x="50" y="190" width="90" height="60" as="geometry" />
        </mxCell>
        <mxCell id="EVpmH3NZ51M5gN4jmlzW-43" value="CD" style="text;html=1;align=center;verticalAlign=middle;resizable=0;points=[];autosize=1;" vertex="1" parent="1">
          <mxGeometry x="495" y="595" width="30" height="20" as="geometry" />
        </mxCell>
        <mxCell id="EVpmH3NZ51M5gN4jmlzW-59" style="edgeStyle=orthogonalEdgeStyle;rounded=0;orthogonalLoop=1;jettySize=auto;html=1;entryX=0;entryY=0.75;entryDx=0;entryDy=0;" edge="1" parent="1" source="EVpmH3NZ51M5gN4jmlzW-44" target="EVpmH3NZ51M5gN4jmlzW-45">
          <mxGeometry relative="1" as="geometry" />
        </mxCell>
        <mxCell id="EVpmH3NZ51M5gN4jmlzW-44" value="测试" style="rounded=0;whiteSpace=wrap;html=1;" vertex="1" parent="1">
          <mxGeometry x="170" y="320" width="60" height="60" as="geometry" />
        </mxCell>
        <mxCell id="EVpmH3NZ51M5gN4jmlzW-62" style="edgeStyle=orthogonalEdgeStyle;rounded=0;orthogonalLoop=1;jettySize=auto;html=1;entryX=0.5;entryY=1;entryDx=0;entryDy=0;" edge="1" parent="1" source="EVpmH3NZ51M5gN4jmlzW-45" target="EVpmH3NZ51M5gN4jmlzW-57">
          <mxGeometry relative="1" as="geometry" />
        </mxCell>
        <mxCell id="EVpmH3NZ51M5gN4jmlzW-45" value="" style="rounded=0;whiteSpace=wrap;html=1;" vertex="1" parent="1">
          <mxGeometry x="310" y="415" width="110" height="160" as="geometry" />
        </mxCell>
        <mxCell id="EVpmH3NZ51M5gN4jmlzW-49" value="GItLab CI" style="text;html=1;align=center;verticalAlign=middle;resizable=0;points=[];autosize=1;" vertex="1" parent="1">
          <mxGeometry x="330" y="430" width="70" height="20" as="geometry" />
        </mxCell>
        <mxCell id="EVpmH3NZ51M5gN4jmlzW-50" value="代码编译" style="text;html=1;align=center;verticalAlign=middle;resizable=0;points=[];autosize=1;" vertex="1" parent="1">
          <mxGeometry x="335" y="479" width="60" height="20" as="geometry" />
        </mxCell>
        <mxCell id="EVpmH3NZ51M5gN4jmlzW-51" value="构建镜像" style="text;html=1;align=center;verticalAlign=middle;resizable=0;points=[];autosize=1;" vertex="1" parent="1">
          <mxGeometry x="335" y="519" width="60" height="20" as="geometry" />
        </mxCell>
        <mxCell id="EVpmH3NZ51M5gN4jmlzW-52" value="推送" style="text;html=1;align=center;verticalAlign=middle;resizable=0;points=[];autosize=1;" vertex="1" parent="1">
          <mxGeometry x="345" y="549" width="40" height="20" as="geometry" />
        </mxCell>
        <mxCell id="EVpmH3NZ51M5gN4jmlzW-53" value="CI" style="text;html=1;align=center;verticalAlign=middle;resizable=0;points=[];autosize=1;" vertex="1" parent="1">
          <mxGeometry x="345" y="595" width="30" height="20" as="geometry" />
        </mxCell>
        <mxCell id="EVpmH3NZ51M5gN4jmlzW-56" value="pull Code" style="text;html=1;align=center;verticalAlign=middle;resizable=0;points=[];autosize=1;" vertex="1" parent="1">
          <mxGeometry x="200" y="459" width="70" height="20" as="geometry" />
        </mxCell>
        <mxCell id="EVpmH3NZ51M5gN4jmlzW-57" value="Image Store" style="rounded=0;whiteSpace=wrap;html=1;" vertex="1" parent="1">
          <mxGeometry x="305" y="300" width="120" height="60" as="geometry" />
        </mxCell>
        <mxCell id="EVpmH3NZ51M5gN4jmlzW-65" value="push" style="text;html=1;align=center;verticalAlign=middle;resizable=0;points=[];autosize=1;" vertex="1" parent="1">
          <mxGeometry x="374" y="380" width="40" height="20" as="geometry" />
        </mxCell>
      </root>
    </mxGraphModel>
  </diagram>
</mxfile>
